<mxfile host="app.diagrams.net" agent="Mozilla/5.0 (Windows NT 10.0; Win64; x64) AppleWebKit/537.36 (KHTML, like Gecko) Chrome/127.0.0.0 Safari/537.36" version="24.7.7">
  <diagram id="C5RBs43oDa-KdzZeNtuy" name="Page-1">
    <mxGraphModel dx="683" dy="1540" grid="1" gridSize="10" guides="1" tooltips="1" connect="1" arrows="1" fold="1" page="1" pageScale="1" pageWidth="827" pageHeight="1169" math="0" shadow="0">
      <root>
        <mxCell id="WIyWlLk6GJQsqaUBKTNV-0" />
        <mxCell id="WIyWlLk6GJQsqaUBKTNV-1" parent="WIyWlLk6GJQsqaUBKTNV-0" />
        <mxCell id="4gbG9uPYshqSw1tlVaeH-32" value="" style="rounded=1;whiteSpace=wrap;html=1;" parent="WIyWlLk6GJQsqaUBKTNV-1" vertex="1">
          <mxGeometry x="240" y="300" width="100" height="80" as="geometry" />
        </mxCell>
        <mxCell id="4gbG9uPYshqSw1tlVaeH-0" value="&lt;div&gt;행동트리&lt;/div&gt;BehaviourTree" style="rounded=1;whiteSpace=wrap;html=1;" parent="WIyWlLk6GJQsqaUBKTNV-1" vertex="1">
          <mxGeometry x="10" y="10" width="120" height="60" as="geometry" />
        </mxCell>
        <mxCell id="4gbG9uPYshqSw1tlVaeH-16" style="edgeStyle=orthogonalEdgeStyle;rounded=0;orthogonalLoop=1;jettySize=auto;html=1;entryX=0.5;entryY=0;entryDx=0;entryDy=0;" parent="WIyWlLk6GJQsqaUBKTNV-1" source="4gbG9uPYshqSw1tlVaeH-3" target="4gbG9uPYshqSw1tlVaeH-13" edge="1">
          <mxGeometry relative="1" as="geometry" />
        </mxCell>
        <mxCell id="4gbG9uPYshqSw1tlVaeH-3" value="Root" style="rounded=1;whiteSpace=wrap;html=1;" parent="WIyWlLk6GJQsqaUBKTNV-1" vertex="1">
          <mxGeometry x="324" y="30" width="80" height="40" as="geometry" />
        </mxCell>
        <mxCell id="4gbG9uPYshqSw1tlVaeH-4" value="Root : 최상단 노드&lt;div&gt;Control flow : 흐름제어 노드&lt;br&gt;&lt;div&gt;Execution : 말단 노드(Leaf)&lt;/div&gt;&lt;/div&gt;" style="text;html=1;align=center;verticalAlign=middle;whiteSpace=wrap;rounded=0;" parent="WIyWlLk6GJQsqaUBKTNV-1" vertex="1">
          <mxGeometry x="21" y="90" width="160" height="100" as="geometry" />
        </mxCell>
        <mxCell id="4gbG9uPYshqSw1tlVaeH-5" value="Rest" style="rounded=1;whiteSpace=wrap;html=1;" parent="WIyWlLk6GJQsqaUBKTNV-1" vertex="1">
          <mxGeometry x="370" y="290" width="80" height="40" as="geometry" />
        </mxCell>
        <mxCell id="4gbG9uPYshqSw1tlVaeH-6" value="Patrol" style="rounded=1;whiteSpace=wrap;html=1;" parent="WIyWlLk6GJQsqaUBKTNV-1" vertex="1">
          <mxGeometry x="490" y="290" width="80" height="40" as="geometry" />
        </mxCell>
        <mxCell id="4gbG9uPYshqSw1tlVaeH-7" value="Seek" style="rounded=1;whiteSpace=wrap;html=1;" parent="WIyWlLk6GJQsqaUBKTNV-1" vertex="1">
          <mxGeometry x="140" y="290" width="80" height="40" as="geometry" />
        </mxCell>
        <mxCell id="4gbG9uPYshqSw1tlVaeH-8" value="Attack" style="rounded=1;whiteSpace=wrap;html=1;" parent="WIyWlLk6GJQsqaUBKTNV-1" vertex="1">
          <mxGeometry x="250" y="330" width="80" height="40" as="geometry" />
        </mxCell>
        <mxCell id="4gbG9uPYshqSw1tlVaeH-10" style="edgeStyle=orthogonalEdgeStyle;rounded=0;orthogonalLoop=1;jettySize=auto;html=1;" parent="WIyWlLk6GJQsqaUBKTNV-1" source="4gbG9uPYshqSw1tlVaeH-9" target="4gbG9uPYshqSw1tlVaeH-5" edge="1">
          <mxGeometry relative="1" as="geometry" />
        </mxCell>
        <mxCell id="4gbG9uPYshqSw1tlVaeH-11" style="edgeStyle=orthogonalEdgeStyle;rounded=0;orthogonalLoop=1;jettySize=auto;html=1;" parent="WIyWlLk6GJQsqaUBKTNV-1" source="4gbG9uPYshqSw1tlVaeH-9" target="4gbG9uPYshqSw1tlVaeH-6" edge="1">
          <mxGeometry relative="1" as="geometry" />
        </mxCell>
        <mxCell id="4gbG9uPYshqSw1tlVaeH-9" value="Random&lt;div&gt;Selector&lt;/div&gt;" style="rounded=1;whiteSpace=wrap;html=1;" parent="WIyWlLk6GJQsqaUBKTNV-1" vertex="1">
          <mxGeometry x="430" y="190" width="90" height="40" as="geometry" />
        </mxCell>
        <mxCell id="4gbG9uPYshqSw1tlVaeH-15" style="edgeStyle=orthogonalEdgeStyle;rounded=0;orthogonalLoop=1;jettySize=auto;html=1;" parent="WIyWlLk6GJQsqaUBKTNV-1" source="4gbG9uPYshqSw1tlVaeH-13" target="4gbG9uPYshqSw1tlVaeH-9" edge="1">
          <mxGeometry relative="1" as="geometry">
            <Array as="points">
              <mxPoint x="364" y="170" />
              <mxPoint x="475" y="170" />
            </Array>
          </mxGeometry>
        </mxCell>
        <mxCell id="4gbG9uPYshqSw1tlVaeH-18" style="edgeStyle=orthogonalEdgeStyle;rounded=0;orthogonalLoop=1;jettySize=auto;html=1;" parent="WIyWlLk6GJQsqaUBKTNV-1" source="4gbG9uPYshqSw1tlVaeH-13" target="4gbG9uPYshqSw1tlVaeH-17" edge="1">
          <mxGeometry relative="1" as="geometry">
            <Array as="points">
              <mxPoint x="364" y="170" />
              <mxPoint x="235" y="170" />
            </Array>
          </mxGeometry>
        </mxCell>
        <mxCell id="4gbG9uPYshqSw1tlVaeH-13" value="&lt;div&gt;Selector&lt;/div&gt;" style="rounded=1;whiteSpace=wrap;html=1;" parent="WIyWlLk6GJQsqaUBKTNV-1" vertex="1">
          <mxGeometry x="319" y="110" width="90" height="40" as="geometry" />
        </mxCell>
        <mxCell id="4gbG9uPYshqSw1tlVaeH-19" style="edgeStyle=orthogonalEdgeStyle;rounded=0;orthogonalLoop=1;jettySize=auto;html=1;" parent="WIyWlLk6GJQsqaUBKTNV-1" source="4gbG9uPYshqSw1tlVaeH-17" target="4gbG9uPYshqSw1tlVaeH-7" edge="1">
          <mxGeometry relative="1" as="geometry" />
        </mxCell>
        <mxCell id="4gbG9uPYshqSw1tlVaeH-20" style="edgeStyle=orthogonalEdgeStyle;rounded=0;orthogonalLoop=1;jettySize=auto;html=1;entryX=0.5;entryY=0;entryDx=0;entryDy=0;" parent="WIyWlLk6GJQsqaUBKTNV-1" source="4gbG9uPYshqSw1tlVaeH-17" target="4gbG9uPYshqSw1tlVaeH-34" edge="1">
          <mxGeometry relative="1" as="geometry">
            <mxPoint x="290" y="300" as="targetPoint" />
            <Array as="points">
              <mxPoint x="235" y="260" />
              <mxPoint x="290" y="260" />
              <mxPoint x="290" y="280" />
            </Array>
          </mxGeometry>
        </mxCell>
        <mxCell id="4gbG9uPYshqSw1tlVaeH-17" value="&lt;div&gt;Sequence&lt;/div&gt;" style="rounded=1;whiteSpace=wrap;html=1;" parent="WIyWlLk6GJQsqaUBKTNV-1" vertex="1">
          <mxGeometry x="190" y="190" width="90" height="40" as="geometry" />
        </mxCell>
        <mxCell id="4gbG9uPYshqSw1tlVaeH-21" value="Failure" style="rounded=0;whiteSpace=wrap;html=1;fillColor=#f8cecc;strokeColor=#b85450;" parent="WIyWlLk6GJQsqaUBKTNV-1" vertex="1">
          <mxGeometry x="560" y="80" width="60" height="20" as="geometry" />
        </mxCell>
        <mxCell id="4gbG9uPYshqSw1tlVaeH-22" value="Success" style="rounded=0;whiteSpace=wrap;html=1;fillColor=#dae8fc;strokeColor=#6c8ebf;" parent="WIyWlLk6GJQsqaUBKTNV-1" vertex="1">
          <mxGeometry x="560" y="60" width="60" height="20" as="geometry" />
        </mxCell>
        <mxCell id="4gbG9uPYshqSw1tlVaeH-23" value="말단노드가 반환하는 결과" style="text;html=1;align=center;verticalAlign=middle;whiteSpace=wrap;rounded=0;" parent="WIyWlLk6GJQsqaUBKTNV-1" vertex="1">
          <mxGeometry x="520" y="25" width="160" height="30" as="geometry" />
        </mxCell>
        <mxCell id="4gbG9uPYshqSw1tlVaeH-24" value="Running" style="rounded=0;whiteSpace=wrap;html=1;fillColor=#d5e8d4;strokeColor=#82b366;" parent="WIyWlLk6GJQsqaUBKTNV-1" vertex="1">
          <mxGeometry x="560" y="100" width="60" height="20" as="geometry" />
        </mxCell>
        <mxCell id="4gbG9uPYshqSw1tlVaeH-26" value="NPC" style="shape=umlActor;verticalLabelPosition=bottom;verticalAlign=top;html=1;outlineConnect=0;" parent="WIyWlLk6GJQsqaUBKTNV-1" vertex="1">
          <mxGeometry x="550" y="190" width="30" height="60" as="geometry" />
        </mxCell>
        <mxCell id="4gbG9uPYshqSw1tlVaeH-27" value="PC" style="shape=umlActor;verticalLabelPosition=bottom;verticalAlign=top;html=1;outlineConnect=0;" parent="WIyWlLk6GJQsqaUBKTNV-1" vertex="1">
          <mxGeometry x="580" y="170" width="30" height="60" as="geometry" />
        </mxCell>
        <mxCell id="4gbG9uPYshqSw1tlVaeH-33" value="is in attack range" style="text;html=1;align=center;verticalAlign=middle;whiteSpace=wrap;rounded=0;" parent="WIyWlLk6GJQsqaUBKTNV-1" vertex="1">
          <mxGeometry x="250" y="300" width="80" height="25" as="geometry" />
        </mxCell>
        <mxCell id="4gbG9uPYshqSw1tlVaeH-34" value="Decorator" style="rounded=0;whiteSpace=wrap;html=1;" parent="WIyWlLk6GJQsqaUBKTNV-1" vertex="1">
          <mxGeometry x="250" y="280" width="80" height="20" as="geometry" />
        </mxCell>
        <mxCell id="4gbG9uPYshqSw1tlVaeH-36" value="&lt;div&gt;Selector : 성공한 자식을 선택하는 노드&lt;/div&gt;&lt;div&gt;왼쪽자식부터 오른쪽으로 하나씩 실행하면서&amp;nbsp;&lt;/div&gt;&lt;div&gt;성공한 자식이 나오면 탐색을 멈추고 결과 반환&lt;/div&gt;" style="rounded=1;whiteSpace=wrap;html=1;align=left;" parent="WIyWlLk6GJQsqaUBKTNV-1" vertex="1">
          <mxGeometry x="1023" y="5" width="310" height="60" as="geometry" />
        </mxCell>
        <mxCell id="4gbG9uPYshqSw1tlVaeH-37" value="&lt;div&gt;Sequence : 모든 자식을 일련의 과정으로 처리하는 노드&lt;/div&gt;&lt;div&gt;왼쪽자식부터 오른쪽으로 하나씩 실행하면서&amp;nbsp;&lt;/div&gt;&lt;div&gt;실패한 자식이 나오면 탐색을 멈추고 결과 반환&lt;/div&gt;" style="rounded=1;whiteSpace=wrap;html=1;align=left;" parent="WIyWlLk6GJQsqaUBKTNV-1" vertex="1">
          <mxGeometry x="1023" y="75" width="310" height="60" as="geometry" />
        </mxCell>
        <mxCell id="4gbG9uPYshqSw1tlVaeH-38" value="&lt;div&gt;Parallel : 모든 자식을 실행한 후에 결과를 처리하는 노드&lt;/div&gt;&lt;div&gt;왼쪽자식부터 오른쪽으로 하나씩 실행하면서&amp;nbsp;&lt;/div&gt;&lt;div&gt;모든자식 탐색 완료후 성공정책에 따라서 결과를 반환&lt;/div&gt;" style="rounded=1;whiteSpace=wrap;html=1;align=left;" parent="WIyWlLk6GJQsqaUBKTNV-1" vertex="1">
          <mxGeometry x="1023" y="145" width="310" height="60" as="geometry" />
        </mxCell>
        <mxCell id="4gbG9uPYshqSw1tlVaeH-40" style="edgeStyle=orthogonalEdgeStyle;rounded=0;orthogonalLoop=1;jettySize=auto;html=1;entryX=0;entryY=0.5;entryDx=0;entryDy=0;" parent="WIyWlLk6GJQsqaUBKTNV-1" source="4gbG9uPYshqSw1tlVaeH-39" target="4gbG9uPYshqSw1tlVaeH-37" edge="1">
          <mxGeometry relative="1" as="geometry" />
        </mxCell>
        <mxCell id="4gbG9uPYshqSw1tlVaeH-41" style="edgeStyle=orthogonalEdgeStyle;rounded=0;orthogonalLoop=1;jettySize=auto;html=1;entryX=0;entryY=0.5;entryDx=0;entryDy=0;" parent="WIyWlLk6GJQsqaUBKTNV-1" source="4gbG9uPYshqSw1tlVaeH-39" target="4gbG9uPYshqSw1tlVaeH-36" edge="1">
          <mxGeometry relative="1" as="geometry" />
        </mxCell>
        <mxCell id="4gbG9uPYshqSw1tlVaeH-42" style="edgeStyle=orthogonalEdgeStyle;rounded=0;orthogonalLoop=1;jettySize=auto;html=1;entryX=0;entryY=0.5;entryDx=0;entryDy=0;" parent="WIyWlLk6GJQsqaUBKTNV-1" source="4gbG9uPYshqSw1tlVaeH-39" target="4gbG9uPYshqSw1tlVaeH-38" edge="1">
          <mxGeometry relative="1" as="geometry" />
        </mxCell>
        <mxCell id="4gbG9uPYshqSw1tlVaeH-39" value="Composite" style="rounded=1;whiteSpace=wrap;html=1;" parent="WIyWlLk6GJQsqaUBKTNV-1" vertex="1">
          <mxGeometry x="840" y="75" width="120" height="60" as="geometry" />
        </mxCell>
        <mxCell id="4gbG9uPYshqSw1tlVaeH-43" value="Decorator" style="rounded=1;whiteSpace=wrap;html=1;" parent="WIyWlLk6GJQsqaUBKTNV-1" vertex="1">
          <mxGeometry x="840" y="215" width="120" height="60" as="geometry" />
        </mxCell>
        <mxCell id="4gbG9uPYshqSw1tlVaeH-44" value="노드종류" style="rounded=1;whiteSpace=wrap;html=1;fillColor=#0050ef;fontColor=#ffffff;strokeColor=#001DBC;" parent="WIyWlLk6GJQsqaUBKTNV-1" vertex="1">
          <mxGeometry x="750" y="10" width="80" height="30" as="geometry" />
        </mxCell>
        <mxCell id="4gbG9uPYshqSw1tlVaeH-45" value="Execution" style="rounded=1;whiteSpace=wrap;html=1;" parent="WIyWlLk6GJQsqaUBKTNV-1" vertex="1">
          <mxGeometry x="840" y="145" width="120" height="60" as="geometry" />
        </mxCell>
        <mxCell id="4gbG9uPYshqSw1tlVaeH-46" value="Root" style="rounded=1;whiteSpace=wrap;html=1;" parent="WIyWlLk6GJQsqaUBKTNV-1" vertex="1">
          <mxGeometry x="840" y="5" width="120" height="60" as="geometry" />
        </mxCell>
        <mxCell id="4gbG9uPYshqSw1tlVaeH-47" value="&amp;lt;&amp;lt;abstract&amp;gt;&amp;gt;&lt;div&gt;Node&lt;/div&gt;" style="swimlane;fontStyle=1;align=center;verticalAlign=top;childLayout=stackLayout;horizontal=1;startSize=40;horizontalStack=0;resizeParent=1;resizeParentMax=0;resizeLast=0;collapsible=1;marginBottom=0;whiteSpace=wrap;html=1;" parent="WIyWlLk6GJQsqaUBKTNV-1" vertex="1">
          <mxGeometry x="720" y="430" width="160" height="126" as="geometry" />
        </mxCell>
        <mxCell id="4gbG9uPYshqSw1tlVaeH-64" value="+ tree" style="text;strokeColor=none;fillColor=none;align=left;verticalAlign=top;spacingLeft=4;spacingRight=4;overflow=hidden;rotatable=0;points=[[0,0.5],[1,0.5]];portConstraint=eastwest;whiteSpace=wrap;html=1;" parent="4gbG9uPYshqSw1tlVaeH-47" vertex="1">
          <mxGeometry y="40" width="160" height="26" as="geometry" />
        </mxCell>
        <mxCell id="4gbG9uPYshqSw1tlVaeH-65" value="+ Blackboard" style="text;strokeColor=none;fillColor=none;align=left;verticalAlign=top;spacingLeft=4;spacingRight=4;overflow=hidden;rotatable=0;points=[[0,0.5],[1,0.5]];portConstraint=eastwest;whiteSpace=wrap;html=1;" parent="4gbG9uPYshqSw1tlVaeH-47" vertex="1">
          <mxGeometry y="66" width="160" height="26" as="geometry" />
        </mxCell>
        <mxCell id="4gbG9uPYshqSw1tlVaeH-49" value="" style="line;strokeWidth=1;fillColor=none;align=left;verticalAlign=middle;spacingTop=-1;spacingLeft=3;spacingRight=3;rotatable=0;labelPosition=right;points=[];portConstraint=eastwest;strokeColor=inherit;" parent="4gbG9uPYshqSw1tlVaeH-47" vertex="1">
          <mxGeometry y="92" width="160" height="8" as="geometry" />
        </mxCell>
        <mxCell id="4gbG9uPYshqSw1tlVaeH-50" value="+ Invoke() : void" style="text;strokeColor=none;fillColor=none;align=left;verticalAlign=top;spacingLeft=4;spacingRight=4;overflow=hidden;rotatable=0;points=[[0,0.5],[1,0.5]];portConstraint=eastwest;whiteSpace=wrap;html=1;" parent="4gbG9uPYshqSw1tlVaeH-47" vertex="1">
          <mxGeometry y="100" width="160" height="26" as="geometry" />
        </mxCell>
        <mxCell id="4gbG9uPYshqSw1tlVaeH-51" value="BehaviourTree" style="swimlane;fontStyle=1;align=center;verticalAlign=top;childLayout=stackLayout;horizontal=1;startSize=30;horizontalStack=0;resizeParent=1;resizeParentMax=0;resizeLast=0;collapsible=1;marginBottom=0;whiteSpace=wrap;html=1;" parent="WIyWlLk6GJQsqaUBKTNV-1" vertex="1">
          <mxGeometry x="720" y="333" width="160" height="38" as="geometry" />
        </mxCell>
        <mxCell id="4gbG9uPYshqSw1tlVaeH-53" value="" style="line;strokeWidth=1;fillColor=none;align=left;verticalAlign=middle;spacingTop=-1;spacingLeft=3;spacingRight=3;rotatable=0;labelPosition=right;points=[];portConstraint=eastwest;strokeColor=inherit;" parent="4gbG9uPYshqSw1tlVaeH-51" vertex="1">
          <mxGeometry y="30" width="160" height="8" as="geometry" />
        </mxCell>
        <mxCell id="4gbG9uPYshqSw1tlVaeH-55" value="목표는 플레이어" style="rounded=1;whiteSpace=wrap;html=1;" parent="WIyWlLk6GJQsqaUBKTNV-1" vertex="1">
          <mxGeometry x="165.5" y="15" width="139" height="110" as="geometry" />
        </mxCell>
        <mxCell id="4gbG9uPYshqSw1tlVaeH-56" value="칠판" style="rounded=0;whiteSpace=wrap;html=1;" parent="WIyWlLk6GJQsqaUBKTNV-1" vertex="1">
          <mxGeometry x="181" y="-5" width="79" height="35" as="geometry" />
        </mxCell>
        <mxCell id="4gbG9uPYshqSw1tlVaeH-57" value="Blackboard" style="swimlane;fontStyle=1;align=center;verticalAlign=top;childLayout=stackLayout;horizontal=1;startSize=30;horizontalStack=0;resizeParent=1;resizeParentMax=0;resizeLast=0;collapsible=1;marginBottom=0;whiteSpace=wrap;html=1;" parent="WIyWlLk6GJQsqaUBKTNV-1" vertex="1">
          <mxGeometry x="950" y="320" width="160" height="64" as="geometry" />
        </mxCell>
        <mxCell id="4gbG9uPYshqSw1tlVaeH-58" value="+ target : Transform" style="text;strokeColor=none;fillColor=none;align=left;verticalAlign=top;spacingLeft=4;spacingRight=4;overflow=hidden;rotatable=0;points=[[0,0.5],[1,0.5]];portConstraint=eastwest;whiteSpace=wrap;html=1;" parent="4gbG9uPYshqSw1tlVaeH-57" vertex="1">
          <mxGeometry y="30" width="160" height="26" as="geometry" />
        </mxCell>
        <mxCell id="4gbG9uPYshqSw1tlVaeH-59" value="" style="line;strokeWidth=1;fillColor=none;align=left;verticalAlign=middle;spacingTop=-1;spacingLeft=3;spacingRight=3;rotatable=0;labelPosition=right;points=[];portConstraint=eastwest;strokeColor=inherit;" parent="4gbG9uPYshqSw1tlVaeH-57" vertex="1">
          <mxGeometry y="56" width="160" height="8" as="geometry" />
        </mxCell>
        <mxCell id="4gbG9uPYshqSw1tlVaeH-62" value="1" style="endArrow=open;html=1;endSize=12;startArrow=diamondThin;startSize=14;startFill=1;edgeStyle=orthogonalEdgeStyle;align=left;verticalAlign=bottom;rounded=0;" parent="WIyWlLk6GJQsqaUBKTNV-1" source="4gbG9uPYshqSw1tlVaeH-51" target="4gbG9uPYshqSw1tlVaeH-57" edge="1">
          <mxGeometry x="-1" y="3" relative="1" as="geometry">
            <mxPoint x="930" y="420" as="sourcePoint" />
            <mxPoint x="1090" y="420" as="targetPoint" />
          </mxGeometry>
        </mxCell>
        <mxCell id="4gbG9uPYshqSw1tlVaeH-63" value="1" style="endArrow=open;html=1;endSize=12;startArrow=diamondThin;startSize=14;startFill=1;edgeStyle=orthogonalEdgeStyle;align=left;verticalAlign=bottom;rounded=0;" parent="WIyWlLk6GJQsqaUBKTNV-1" source="4gbG9uPYshqSw1tlVaeH-51" target="4gbG9uPYshqSw1tlVaeH-47" edge="1">
          <mxGeometry x="-1" y="3" relative="1" as="geometry">
            <mxPoint x="910" y="362" as="sourcePoint" />
            <mxPoint x="960" y="362" as="targetPoint" />
          </mxGeometry>
        </mxCell>
        <mxCell id="4gbG9uPYshqSw1tlVaeH-66" value="Root" style="swimlane;fontStyle=1;align=center;verticalAlign=top;childLayout=stackLayout;horizontal=1;startSize=30;horizontalStack=0;resizeParent=1;resizeParentMax=0;resizeLast=0;collapsible=1;marginBottom=0;whiteSpace=wrap;html=1;" parent="WIyWlLk6GJQsqaUBKTNV-1" vertex="1">
          <mxGeometry x="950" y="430" width="160" height="38" as="geometry" />
        </mxCell>
        <mxCell id="4gbG9uPYshqSw1tlVaeH-68" value="" style="line;strokeWidth=1;fillColor=none;align=left;verticalAlign=middle;spacingTop=-1;spacingLeft=3;spacingRight=3;rotatable=0;labelPosition=right;points=[];portConstraint=eastwest;strokeColor=inherit;" parent="4gbG9uPYshqSw1tlVaeH-66" vertex="1">
          <mxGeometry y="30" width="160" height="8" as="geometry" />
        </mxCell>
        <mxCell id="4gbG9uPYshqSw1tlVaeH-69" value="Execution" style="swimlane;fontStyle=1;align=center;verticalAlign=top;childLayout=stackLayout;horizontal=1;startSize=30;horizontalStack=0;resizeParent=1;resizeParentMax=0;resizeLast=0;collapsible=1;marginBottom=0;whiteSpace=wrap;html=1;" parent="WIyWlLk6GJQsqaUBKTNV-1" vertex="1">
          <mxGeometry x="950" y="474" width="160" height="64" as="geometry" />
        </mxCell>
        <mxCell id="4gbG9uPYshqSw1tlVaeH-76" value="+ execute : Func&amp;lt;Result&amp;gt;" style="text;strokeColor=none;fillColor=none;align=left;verticalAlign=top;spacingLeft=4;spacingRight=4;overflow=hidden;rotatable=0;points=[[0,0.5],[1,0.5]];portConstraint=eastwest;whiteSpace=wrap;html=1;" parent="4gbG9uPYshqSw1tlVaeH-69" vertex="1">
          <mxGeometry y="30" width="160" height="26" as="geometry" />
        </mxCell>
        <mxCell id="4gbG9uPYshqSw1tlVaeH-70" value="" style="line;strokeWidth=1;fillColor=none;align=left;verticalAlign=middle;spacingTop=-1;spacingLeft=3;spacingRight=3;rotatable=0;labelPosition=right;points=[];portConstraint=eastwest;strokeColor=inherit;" parent="4gbG9uPYshqSw1tlVaeH-69" vertex="1">
          <mxGeometry y="56" width="160" height="8" as="geometry" />
        </mxCell>
        <mxCell id="4gbG9uPYshqSw1tlVaeH-71" value="&lt;div&gt;&amp;lt;&amp;lt;abstract&amp;gt;&amp;gt;&lt;/div&gt;Composite" style="swimlane;fontStyle=1;align=center;verticalAlign=top;childLayout=stackLayout;horizontal=1;startSize=38;horizontalStack=0;resizeParent=1;resizeParentMax=0;resizeLast=0;collapsible=1;marginBottom=0;whiteSpace=wrap;html=1;" parent="WIyWlLk6GJQsqaUBKTNV-1" vertex="1">
          <mxGeometry x="950" y="620" width="160" height="98" as="geometry" />
        </mxCell>
        <mxCell id="4gbG9uPYshqSw1tlVaeH-79" value="+ children : List&amp;lt;Node&amp;gt;" style="text;strokeColor=none;fillColor=none;align=left;verticalAlign=top;spacingLeft=4;spacingRight=4;overflow=hidden;rotatable=0;points=[[0,0.5],[1,0.5]];portConstraint=eastwest;whiteSpace=wrap;html=1;" parent="4gbG9uPYshqSw1tlVaeH-71" vertex="1">
          <mxGeometry y="38" width="160" height="26" as="geometry" />
        </mxCell>
        <mxCell id="4gbG9uPYshqSw1tlVaeH-82" value="+ currentChildIndex : int" style="text;strokeColor=none;fillColor=none;align=left;verticalAlign=top;spacingLeft=4;spacingRight=4;overflow=hidden;rotatable=0;points=[[0,0.5],[1,0.5]];portConstraint=eastwest;whiteSpace=wrap;html=1;" parent="4gbG9uPYshqSw1tlVaeH-71" vertex="1">
          <mxGeometry y="64" width="160" height="26" as="geometry" />
        </mxCell>
        <mxCell id="4gbG9uPYshqSw1tlVaeH-72" value="" style="line;strokeWidth=1;fillColor=none;align=left;verticalAlign=middle;spacingTop=-1;spacingLeft=3;spacingRight=3;rotatable=0;labelPosition=right;points=[];portConstraint=eastwest;strokeColor=inherit;" parent="4gbG9uPYshqSw1tlVaeH-71" vertex="1">
          <mxGeometry y="90" width="160" height="8" as="geometry" />
        </mxCell>
        <mxCell id="4gbG9uPYshqSw1tlVaeH-73" value="Decorator" style="swimlane;fontStyle=1;align=center;verticalAlign=top;childLayout=stackLayout;horizontal=1;startSize=30;horizontalStack=0;resizeParent=1;resizeParentMax=0;resizeLast=0;collapsible=1;marginBottom=0;whiteSpace=wrap;html=1;" parent="WIyWlLk6GJQsqaUBKTNV-1" vertex="1">
          <mxGeometry x="950" y="547" width="160" height="64" as="geometry" />
        </mxCell>
        <mxCell id="4gbG9uPYshqSw1tlVaeH-78" value="+ condtion : Func&amp;lt;bool&amp;gt;" style="text;strokeColor=none;fillColor=none;align=left;verticalAlign=top;spacingLeft=4;spacingRight=4;overflow=hidden;rotatable=0;points=[[0,0.5],[1,0.5]];portConstraint=eastwest;whiteSpace=wrap;html=1;" parent="4gbG9uPYshqSw1tlVaeH-73" vertex="1">
          <mxGeometry y="30" width="160" height="26" as="geometry" />
        </mxCell>
        <mxCell id="4gbG9uPYshqSw1tlVaeH-74" value="" style="line;strokeWidth=1;fillColor=none;align=left;verticalAlign=middle;spacingTop=-1;spacingLeft=3;spacingRight=3;rotatable=0;labelPosition=right;points=[];portConstraint=eastwest;strokeColor=inherit;" parent="4gbG9uPYshqSw1tlVaeH-73" vertex="1">
          <mxGeometry y="56" width="160" height="8" as="geometry" />
        </mxCell>
        <mxCell id="4gbG9uPYshqSw1tlVaeH-77" value="«enum»&lt;br&gt;&lt;b&gt;Result&lt;/b&gt;&lt;div&gt;&lt;b&gt;&lt;br&gt;&lt;/b&gt;&lt;/div&gt;&lt;div&gt;&lt;b&gt;Success&lt;/b&gt;&lt;/div&gt;&lt;div&gt;&lt;b&gt;Failure&lt;/b&gt;&lt;/div&gt;&lt;div&gt;&lt;b&gt;Running&lt;/b&gt;&lt;/div&gt;" style="html=1;whiteSpace=wrap;" parent="WIyWlLk6GJQsqaUBKTNV-1" vertex="1">
          <mxGeometry x="1126" y="430" width="115" height="100" as="geometry" />
        </mxCell>
        <mxCell id="4gbG9uPYshqSw1tlVaeH-83" value="Selector" style="swimlane;fontStyle=1;align=center;verticalAlign=top;childLayout=stackLayout;horizontal=1;startSize=30;horizontalStack=0;resizeParent=1;resizeParentMax=0;resizeLast=0;collapsible=1;marginBottom=0;whiteSpace=wrap;html=1;" parent="WIyWlLk6GJQsqaUBKTNV-1" vertex="1">
          <mxGeometry x="1170" y="632" width="160" height="38" as="geometry" />
        </mxCell>
        <mxCell id="4gbG9uPYshqSw1tlVaeH-84" value="" style="line;strokeWidth=1;fillColor=none;align=left;verticalAlign=middle;spacingTop=-1;spacingLeft=3;spacingRight=3;rotatable=0;labelPosition=right;points=[];portConstraint=eastwest;strokeColor=inherit;" parent="4gbG9uPYshqSw1tlVaeH-83" vertex="1">
          <mxGeometry y="30" width="160" height="8" as="geometry" />
        </mxCell>
        <mxCell id="4gbG9uPYshqSw1tlVaeH-85" value="Sequence" style="swimlane;fontStyle=1;align=center;verticalAlign=top;childLayout=stackLayout;horizontal=1;startSize=30;horizontalStack=0;resizeParent=1;resizeParentMax=0;resizeLast=0;collapsible=1;marginBottom=0;whiteSpace=wrap;html=1;" parent="WIyWlLk6GJQsqaUBKTNV-1" vertex="1">
          <mxGeometry x="1170" y="680" width="160" height="38" as="geometry" />
        </mxCell>
        <mxCell id="4gbG9uPYshqSw1tlVaeH-86" value="" style="line;strokeWidth=1;fillColor=none;align=left;verticalAlign=middle;spacingTop=-1;spacingLeft=3;spacingRight=3;rotatable=0;labelPosition=right;points=[];portConstraint=eastwest;strokeColor=inherit;" parent="4gbG9uPYshqSw1tlVaeH-85" vertex="1">
          <mxGeometry y="30" width="160" height="8" as="geometry" />
        </mxCell>
        <mxCell id="4gbG9uPYshqSw1tlVaeH-87" value="Parallel" style="swimlane;fontStyle=1;align=center;verticalAlign=top;childLayout=stackLayout;horizontal=1;startSize=30;horizontalStack=0;resizeParent=1;resizeParentMax=0;resizeLast=0;collapsible=1;marginBottom=0;whiteSpace=wrap;html=1;" parent="WIyWlLk6GJQsqaUBKTNV-1" vertex="1">
          <mxGeometry x="1170" y="730" width="160" height="64" as="geometry" />
        </mxCell>
        <mxCell id="4gbG9uPYshqSw1tlVaeH-93" value="+ successPolicy : int" style="text;strokeColor=none;fillColor=none;align=left;verticalAlign=top;spacingLeft=4;spacingRight=4;overflow=hidden;rotatable=0;points=[[0,0.5],[1,0.5]];portConstraint=eastwest;whiteSpace=wrap;html=1;" parent="4gbG9uPYshqSw1tlVaeH-87" vertex="1">
          <mxGeometry y="30" width="160" height="26" as="geometry" />
        </mxCell>
        <mxCell id="4gbG9uPYshqSw1tlVaeH-88" value="" style="line;strokeWidth=1;fillColor=none;align=left;verticalAlign=middle;spacingTop=-1;spacingLeft=3;spacingRight=3;rotatable=0;labelPosition=right;points=[];portConstraint=eastwest;strokeColor=inherit;" parent="4gbG9uPYshqSw1tlVaeH-87" vertex="1">
          <mxGeometry y="56" width="160" height="8" as="geometry" />
        </mxCell>
        <mxCell id="4gbG9uPYshqSw1tlVaeH-89" value="" style="endArrow=block;endSize=16;endFill=0;html=1;rounded=0;" parent="WIyWlLk6GJQsqaUBKTNV-1" source="4gbG9uPYshqSw1tlVaeH-83" target="4gbG9uPYshqSw1tlVaeH-71" edge="1">
          <mxGeometry width="160" relative="1" as="geometry">
            <mxPoint x="980" y="570" as="sourcePoint" />
            <mxPoint x="1140" y="570" as="targetPoint" />
          </mxGeometry>
        </mxCell>
        <mxCell id="4gbG9uPYshqSw1tlVaeH-91" value="" style="endArrow=block;endSize=16;endFill=0;html=1;rounded=0;" parent="WIyWlLk6GJQsqaUBKTNV-1" source="4gbG9uPYshqSw1tlVaeH-85" target="4gbG9uPYshqSw1tlVaeH-71" edge="1">
          <mxGeometry width="160" relative="1" as="geometry">
            <mxPoint x="1180" y="668" as="sourcePoint" />
            <mxPoint x="1120" y="672" as="targetPoint" />
          </mxGeometry>
        </mxCell>
        <mxCell id="4gbG9uPYshqSw1tlVaeH-92" value="" style="endArrow=block;endSize=16;endFill=0;html=1;rounded=0;" parent="WIyWlLk6GJQsqaUBKTNV-1" source="4gbG9uPYshqSw1tlVaeH-87" target="4gbG9uPYshqSw1tlVaeH-71" edge="1">
          <mxGeometry width="160" relative="1" as="geometry">
            <mxPoint x="1180" y="698" as="sourcePoint" />
            <mxPoint x="1120" y="690" as="targetPoint" />
          </mxGeometry>
        </mxCell>
        <mxCell id="4gbG9uPYshqSw1tlVaeH-94" value="«Interface»&lt;br&gt;&lt;b&gt;IParentOfChild&lt;/b&gt;&lt;div&gt;&lt;br&gt;&lt;/div&gt;&lt;div&gt;{get; set;} child : Node&lt;/div&gt;" style="html=1;whiteSpace=wrap;" parent="WIyWlLk6GJQsqaUBKTNV-1" vertex="1">
          <mxGeometry x="710" y="570" width="180" height="70" as="geometry" />
        </mxCell>
        <mxCell id="4gbG9uPYshqSw1tlVaeH-95" value="" style="endArrow=block;endSize=16;endFill=0;html=1;rounded=0;fillColor=#1ba1e2;strokeColor=#006EAF;" parent="WIyWlLk6GJQsqaUBKTNV-1" source="4gbG9uPYshqSw1tlVaeH-66" target="4gbG9uPYshqSw1tlVaeH-94" edge="1">
          <mxGeometry width="160" relative="1" as="geometry">
            <mxPoint x="1180" y="668" as="sourcePoint" />
            <mxPoint x="1120" y="672" as="targetPoint" />
            <Array as="points">
              <mxPoint x="920" y="449" />
              <mxPoint x="920" y="600" />
            </Array>
          </mxGeometry>
        </mxCell>
        <mxCell id="4gbG9uPYshqSw1tlVaeH-96" value="" style="endArrow=block;endSize=16;endFill=0;html=1;rounded=0;fillColor=#1ba1e2;strokeColor=#006EAF;" parent="WIyWlLk6GJQsqaUBKTNV-1" source="4gbG9uPYshqSw1tlVaeH-73" target="4gbG9uPYshqSw1tlVaeH-94" edge="1">
          <mxGeometry width="160" relative="1" as="geometry">
            <mxPoint x="960" y="459" as="sourcePoint" />
            <mxPoint x="900" y="611" as="targetPoint" />
            <Array as="points">
              <mxPoint x="920" y="580" />
              <mxPoint x="920" y="600" />
            </Array>
          </mxGeometry>
        </mxCell>
        <mxCell id="4gbG9uPYshqSw1tlVaeH-97" value="«Interface»&lt;br&gt;&lt;b&gt;IParentOfChildren&lt;/b&gt;&lt;div&gt;&lt;br&gt;&lt;/div&gt;&lt;div&gt;{get; set;} childern : List&amp;lt;Node&amp;gt;&lt;/div&gt;" style="html=1;whiteSpace=wrap;" parent="WIyWlLk6GJQsqaUBKTNV-1" vertex="1">
          <mxGeometry x="710" y="648" width="180" height="70" as="geometry" />
        </mxCell>
        <mxCell id="4gbG9uPYshqSw1tlVaeH-98" value="" style="endArrow=block;endSize=16;endFill=0;html=1;rounded=0;fillColor=#d80073;strokeColor=#A50040;" parent="WIyWlLk6GJQsqaUBKTNV-1" source="4gbG9uPYshqSw1tlVaeH-71" target="4gbG9uPYshqSw1tlVaeH-97" edge="1">
          <mxGeometry width="160" relative="1" as="geometry">
            <mxPoint x="1180" y="668" as="sourcePoint" />
            <mxPoint x="1120" y="672" as="targetPoint" />
          </mxGeometry>
        </mxCell>
        <mxCell id="B8onMcR7asOCIZOrukal-0" value="current" style="text;html=1;align=center;verticalAlign=middle;whiteSpace=wrap;rounded=0;fillColor=#fad7ac;strokeColor=#b46504;" vertex="1" parent="WIyWlLk6GJQsqaUBKTNV-1">
          <mxGeometry x="280" y="190" width="60" height="30" as="geometry" />
        </mxCell>
      </root>
    </mxGraphModel>
  </diagram>
</mxfile>
